<?xml version="1.0" encoding="UTF-8"?>
<svg id="Layer_1" data-name="Layer 1" xmlns="http://www.w3.org/2000/svg" width="995" height="651" viewBox="0 0 995 651">
  <defs>
    <style>
      .cls-1 {
        fill: #e66767;
      }

      .cls-2 {
        fill: #303952;
      }
    </style>
  </defs>
  <path class="cls-1" d="M78.57,126.99h30.23v131.44h72.82v28.85H78.57V126.99Z"/>
  <path class="cls-1" d="M239.66,126.99h107.16v28.85h-38.47v102.59h38.47v28.85h-107.16v-28.85h38.47v-102.59h-38.47v-28.85Z"/>
  <path class="cls-1" d="M404.86,126.99h30.23v131.44h72.82v28.85h-103.05V126.99Z"/>
  <path class="cls-1" d="M565.95,189.28c0-20.76,5.23-36.87,15.69-48.32,10.46-11.45,24.93-17.18,43.39-17.18s32.94,5.73,43.4,17.18c10.45,11.45,15.68,27.56,15.68,48.32v35.72c0,21.37-5.23,37.63-15.68,48.77-10.46,11.15-24.93,16.72-43.4,16.72s-32.94-5.57-43.39-16.72c-10.46-11.14-15.69-27.4-15.69-48.77v-35.72Zm59.08,73.73c5.5,0,10.08-.88,13.74-2.63,3.66-1.75,6.64-4.23,8.93-7.44,2.29-3.2,3.9-7.02,4.81-11.45,.92-4.42,1.38-9.31,1.38-14.65v-39.39c0-5.04-.54-9.77-1.61-14.2-1.07-4.43-2.75-8.25-5.03-11.45-2.29-3.21-5.27-5.76-8.93-7.68-3.67-1.9-8.1-2.86-13.29-2.86s-9.62,.96-13.28,2.86c-3.66,1.91-6.64,4.47-8.93,7.68-2.29,3.2-3.97,7.02-5.03,11.45-1.07,4.43-1.61,9.16-1.61,14.2v39.39c0,5.34,.46,10.23,1.37,14.65,.92,4.43,2.53,8.25,4.81,11.45,2.29,3.21,5.27,5.69,8.93,7.44,3.66,1.76,8.25,2.63,13.74,2.63Z"/>
  <path class="cls-1" d="M69.57,373.46h103.05v17.85h-42.14v142.43h-19.23v-142.43h-41.68v-17.85Z"/>
  <path class="cls-1" d="M252.77,373.46h19.23v70.98h68.24v-70.98h19.24v160.29h-19.24v-71.45h-68.24v71.45h-19.23v-160.29Z"/>
  <path class="cls-1" d="M439.63,373.46h103.05v17.85h-41.91v124.57h41.91v17.86h-103.05v-17.86h41.91v-124.57h-41.91v-17.85Z"/>
  <path class="cls-1" d="M712.56,525.5h2.74v-152.04h19.24v160.29h-38.48l-51.26-152.05h-2.75v152.05h-19.23v-160.29h38.47l51.27,152.04Z"/>
  <path class="cls-1" d="M833.92,533.74h-19.23v-160.29h19.23v70.98h5.27l61.6-70.98h23.82v1.37l-66.4,77.39v2.75l69.16,77.4v1.37h-24.28l-63.89-71.45h-5.27v71.45Z"/>
  <g>
    <rect class="cls-2" x="824.95" y="112.93" width="19.63" height="185.19"/>
    <rect class="cls-2" x="742.15" y="195.71" width="185.2" height="19.63"/>
    <rect class="cls-2" x="742.16" y="195.71" width="185.19" height="19.63" transform="translate(99.17 650.46) rotate(-45)"/>
    <rect class="cls-2" x="824.94" y="112.93" width="19.63" height="185.19" transform="translate(99.14 650.42) rotate(-45)"/>
  </g>
</svg>